# xmcd CD database file
#
# Track frame offsets:
#	150
#	9664
#	18941
#	29938
#	40979
#	52134
#	62777
#	73104
#	85869
#	96578
#	110335
#	123863
#	135355
#	151844
#	166276
#	179982
#	192069
#	204567
#	220866
#
# Disc length: 3097 seconds
#
# Revision: 0
# Processed by: cddbd v1.5.2PL0 Copyright (c) Steve Scherf et al.
# Submitted via: CDex 1.70beta2
#
DISCID=150c1713
DTITLE=Waylon Jennings - The Essential 1
DYEAR=2011
DGENRE=Country
TTITLE0=That's The Chance I'll Have To Take
TTITLE1=Stop The World (And Let Me Off)
TTITLE2=Anita, You're Dreaming
TTITLE3=(That's What You Get) For Lovin' Me
TTITLE4=The Chokin' Kind
TTITLE5=Only Daddy That'll Walk The Line
TTITLE6=Just To Satisfy You
TTITLE7=Cedartown, Georgia
TTITLE8=The Taker
TTITLE9=Lovin' Her Was Easier (Than Anything I'll Ever Do Again)
TTITLE10=Sweet Dream Woman
TTITLE11=Ladies Love Outlaws
TTITLE12=Lonesome, On'ry And Mean
TTITLE13=Freedom To Stay
TTITLE14=Pretend I Never Happened
TTITLE15=You Can Have Her
TTITLE16=We Had It All
TTITLE17=Honky Tonk Heroes
TTITLE18=You Ask Me To
EXTD=YEAR: 2011
EXTT0=
EXTT1=
EXTT2=
EXTT3=
EXTT4=
EXTT5=
EXTT6=
EXTT7=
EXTT8=
EXTT9=
EXTT10=
EXTT11=
EXTT12=
EXTT13=
EXTT14=
EXTT15=
EXTT16=
EXTT17=
EXTT18=
PLAYORDER=
